{
  "accessors": [
    {
      "bufferView": 2,
      "componentType": 5126,
      "count": 326,
      "max": [
        1.0771139860153198,
        1.0752160549163818,
        -0.1440420001745224
      ],
      "min": [
        -1.0780550241470337,
        -1.0752860307693481,
        -0.4471069872379303
      ],
      "type": "VEC3"
    },
    {
      "bufferView": 2,
      "byteOffset": 3912,
      "componentType": 5126,
      "count": 326,
      "max": [
        0.9959143400192261,
        0.9956082105636597,
        0.9999991059303284
      ],
      "min": [
        -0.9960472583770752,
        -0.9957912564277649,
        -0.9999889731407166
      ],
      "type": "VEC3"
    },
    {
      "bufferView": 3,
      "componentType": 5126,
      "count": 326,
      "max": [
        0.7775171399116516,
        0.9972020983695984,
        0.9995189905166626,
        1.0
      ],
      "min": [
        -0.7656979560852051,
        -0.9991427063941956,
        -0.9993427395820618,
        1.0
      ],
      "type": "VEC4"
    },
    {
      "bufferView": 2,
      "byteOffset": 7824,
      "componentType": 5126,
      "count": 326,
      "max": [
        1.0,
        0.8745098114013672,
        0.7960784435272217
      ],
      "min": [
        1.0,
        0.8745098114013672,
        0.7960784435272217
      ],
      "type": "VEC3"
    },
    {
      "bufferView": 1,
      "componentType": 5126,
      "count": 326,
      "max": [
        0.9923200011253357,
        0.9952790141105652
      ],
      "min": [
        0.0026809999253600836,
        0.002394000068306923
      ],
      "type": "VEC2"
    },
    {
      "bufferView": 0,
      "componentType": 5125,
      "count": 1584,
      "type": "SCALAR"
    },
    {
      "bufferView": 2,
      "byteOffset": 11736,
      "componentType": 5126,
      "count": 326,
      "max": [
        0.9976940155029297,
        0.9959409832954407,
        0.18236500024795532
      ],
      "min": [
        -0.9988449811935425,
        -0.9957770109176636,
        -0.12070000171661377
      ],
      "type": "VEC3"
    },
    {
      "bufferView": 2,
      "byteOffset": 15648,
      "componentType": 5126,
      "count": 326,
      "max": [
        0.9998561143875122,
        0.9996070265769958,
        0.9999889731407166
      ],
      "min": [
        -0.9998621344566345,
        -0.9994240999221802,
        -0.9999991059303284
      ],
      "type": "VEC3"
    },
    {
      "bufferView": 3,
      "byteOffset": 5216,
      "componentType": 5126,
      "count": 326,
      "max": [
        0.7197490930557251,
        1.0,
        0.9993427395820618,
        1.0
      ],
      "min": [
        -0.7250581383705139,
        -0.9915306568145752,
        -0.9995190501213074,
        1.0
      ],
      "type": "VEC4"
    },
    {
      "bufferView": 2,
      "byteOffset": 19560,
      "componentType": 5126,
      "count": 326,
      "max": [
        1.0,
        0.8745098114013672,
        0.7960784435272217
      ],
      "min": [
        1.0,
        0.8745098114013672,
        0.7960784435272217
      ],
      "type": "VEC3"
    },
    {
      "bufferView": 1,
      "byteOffset": 2608,
      "componentType": 5126,
      "count": 326,
      "max": [
        0.9923200011253357,
        0.9952790141105652
      ],
      "min": [
        0.0026809999253600836,
        0.002394000068306923
      ],
      "type": "VEC2"
    },
    {
      "bufferView": 0,
      "byteOffset": 6336,
      "componentType": 5125,
      "count": 1584,
      "type": "SCALAR"
    },
    {
      "bufferView": 2,
      "byteOffset": 23472,
      "componentType": 5126,
      "count": 211,
      "max": [
        0.5979949831962585,
        0.6100029945373535,
        -0.7437170147895813
      ],
      "min": [
        -0.5977709889411926,
        -0.6211069822311401,
        -0.8570029735565186
      ],
      "type": "VEC3"
    },
    {
      "bufferView": 2,
      "byteOffset": 26004,
      "componentType": 5126,
      "count": 211,
      "max": [
        0.9951041340827942,
        0.9922276139259338,
        0.9998824596405029
      ],
      "min": [
        -0.996808648109436,
        -0.9960323572158813,
        -0.999991238117218
      ],
      "type": "VEC3"
    },
    {
      "bufferView": 1,
      "byteOffset": 5216,
      "componentType": 5126,
      "count": 211,
      "max": [
        0.9942960143089294,
        0.995917022228241
      ],
      "min": [
        0.006666999775916338,
        0.006666999775916338
      ],
      "type": "VEC2"
    },
    {
      "bufferView": 0,
      "byteOffset": 12672,
      "componentType": 5125,
      "count": 996,
      "type": "SCALAR"
    },
    {
      "bufferView": 2,
      "byteOffset": 28536,
      "componentType": 5126,
      "count": 1026,
      "max": [
        1.0724660158157349,
        1.0720560550689697,
        -0.0012959999730810523
      ],
      "min": [
        -1.076854944229126,
        -1.080786943435669,
        -0.11684499680995941
      ],
      "type": "VEC3"
    },
    {
      "bufferView": 2,
      "byteOffset": 40848,
      "componentType": 5126,
      "count": 1026,
      "max": [
        0.9998555183410645,
        0.9980549812316895,
        1.0
      ],
      "min": [
        -0.9898088574409485,
        -0.9970297813415527,
        -1.0
      ],
      "type": "VEC3"
    },
    {
      "bufferView": 3,
      "byteOffset": 10432,
      "componentType": 5126,
      "count": 1026,
      "max": [
        0.9476262927055359,
        0.9488691687583923,
        0.9959840178489685,
        -1.0
      ],
      "min": [
        -0.9901555776596069,
        -0.9894498586654663,
        -0.9971553087234497,
        -1.0
      ],
      "type": "VEC4"
    },
    {
      "bufferView": 1,
      "byteOffset": 6904,
      "componentType": 5126,
      "count": 1026,
      "max": [
        0.998121976852417,
        0.9984480142593384
      ],
      "min": [
        0.006934000179171562,
        0.006934000179171562
      ],
      "type": "VEC2"
    },
    {
      "bufferView": 0,
      "byteOffset": 16656,
      "componentType": 5125,
      "count": 5760,
      "type": "SCALAR"
    }
  ],
  "asset": {
    "extras": {
      "author": "XimovsYZ (https://sketchfab.com/ximovsstudio)",
      "license": "CC-BY-4.0 (http://creativecommons.org/licenses/by/4.0/)",
      "source": "https://sketchfab.com/3d-models/toasts-with-cheese-c8742baa63a74898b9398ddbc1cc6ab6",
      "title": "Toasts with Cheese"
    },
    "generator": "Sketchfab-14.32.1",
    "version": "2.0"
  },
  "bufferViews": [
    {
      "buffer": 0,
      "byteLength": 39696,
      "name": "floatBufferViews",
      "target": 34963
    },
    {
      "buffer": 0,
      "byteLength": 15112,
      "byteOffset": 39696,
      "byteStride": 8,
      "name": "floatBufferViews",
      "target": 34962
    },
    {
      "buffer": 0,
      "byteLength": 53160,
      "byteOffset": 54808,
      "byteStride": 12,
      "name": "floatBufferViews",
      "target": 34962
    },
    {
      "buffer": 0,
      "byteLength": 26848,
      "byteOffset": 107968,
      "byteStride": 16,
      "name": "floatBufferViews",
      "target": 34962
    }
  ],
  "buffers": [
    {
      "byteLength": 134816,
      "uri": "scene.bin"
    }
  ],
  "extensionsRequired": [
    "KHR_materials_pbrSpecularGlossiness"
  ],
  "extensionsUsed": [
    "KHR_materials_pbrSpecularGlossiness"
  ],
  "images": [
    {
      "uri": "textures/Dish_diffuse.jpeg"
    },
    {
      "uri": "textures/Dish_normal.png"
    },
    {
      "uri": "textures/Cheese_diffuse.jpeg"
    },
    {
      "uri": "textures/Bread_diffuse.jpeg"
    },
    {
      "uri": "textures/Bread_normal.png"
    },
    {
      "uri": "textures/Bread_occlusion.png"
    }
  ],
  "materials": [
    {
      "extensions": {
        "KHR_materials_pbrSpecularGlossiness": {
          "diffuseFactor": [
            1.0,
            1.0,
            1.0,
            1.0
          ],
          "diffuseTexture": {
            "index": 0
          },
          "glossinessFactor": 1.0,
          "specularFactor": [
            0.0,
            0.0,
            0.0
          ]
        }
      },
      "name": "Dish",
      "normalTexture": {
        "index": 1
      }
    },
    {
      "extensions": {
        "KHR_materials_pbrSpecularGlossiness": {
          "diffuseFactor": [
            1.0,
            1.0,
            1.0,
            1.0
          ],
          "diffuseTexture": {
            "index": 2
          },
          "glossinessFactor": 1.0,
          "specularFactor": [
            0.19352439931245502,
            0.19352439931245502,
            0.19352439931245502
          ]
        }
      },
      "name": "Cheese"
    },
    {
      "extensions": {
        "KHR_materials_pbrSpecularGlossiness": {
          "diffuseFactor": [
            1.0,
            1.0,
            1.0,
            1.0
          ],
          "diffuseTexture": {
            "index": 3
          },
          "glossinessFactor": 0.19694993356170232,
          "specularFactor": [
            0.0,
            0.0,
            0.0
          ]
        }
      },
      "name": "Bread",
      "normalTexture": {
        "index": 4
      },
      "occlusionTexture": {
        "index": 5
      }
    }
  ],
  "meshes": [
    {
      "name": "defaultMaterial",
      "primitives": [
        {
          "attributes": {
            "COLOR_0": 3,
            "NORMAL": 1,
            "POSITION": 0,
            "TANGENT": 2,
            "TEXCOORD_0": 4
          },
          "indices": 5,
          "material": 2,
          "mode": 4
        }
      ]
    },
    {
      "name": "defaultMaterial",
      "primitives": [
        {
          "attributes": {
            "COLOR_0": 9,
            "NORMAL": 7,
            "POSITION": 6,
            "TANGENT": 8,
            "TEXCOORD_0": 10
          },
          "indices": 11,
          "material": 2,
          "mode": 4
        }
      ]
    },
    {
      "name": "defaultMaterial",
      "primitives": [
        {
          "attributes": {
            "NORMAL": 13,
            "POSITION": 12,
            "TEXCOORD_0": 14
          },
          "indices": 15,
          "material": 1,
          "mode": 4
        }
      ]
    },
    {
      "name": "defaultMaterial",
      "primitives": [
        {
          "attributes": {
            "NORMAL": 17,
            "POSITION": 16,
            "TANGENT": 18,
            "TEXCOORD_0": 19
          },
          "indices": 20,
          "material": 0,
          "mode": 4
        }
      ]
    }
  ],
  "nodes": [
    {
      "children": [
        1
      ],
      "matrix": [
        0.0002434611233184114,
        0.0,
        0.0,
        0.0,
        0.0,
        5.405922894184099e-20,
        -0.0002434611233184114,
        0.0,
        0.0,
        0.0002434611233184114,
        5.405922894184099e-20,
        0.0,
        0.0,
        0.0,
        0.0,
        1.0
      ],
      "name": "Sketchfab_model"
    },
    {
      "children": [
        2,
        4,
        6,
        8
      ],
      "matrix": [
        1.0,
        0.0,
        0.0,
        0.0,
        0.0,
        -4.371139006309477e-08,
        0.999999999999999,
        0.0,
        0.0,
        -0.999999999999999,
        -4.371139006309477e-08,
        0.0,
        0.0,
        0.0,
        0.0,
        1.0
      ],
      "name": "Collada visual scene group"
    },
    {
      "children": [
        3
      ],
      "matrix": [
        372.858398,
        0.0,
        0.0,
        0.0,
        0.0,
        -6.1e-05,
        -372.858398,
        0.0,
        0.0,
        372.858398,
        -6.1e-05,
        0.0,
        -1.145795,
        147.278778,
        0.0,
        1.0
      ],
      "name": "low_BreadBottom"
    },
    {
      "mesh": 0,
      "name": "defaultMaterial"
    },
    {
      "children": [
        5
      ],
      "matrix": [
        372.858398,
        0.0,
        0.0,
        0.0,
        0.0,
        -6.1e-05,
        -372.858398,
        0.0,
        0.0,
        372.858398,
        -6.1e-05,
        0.0,
        -1.145795,
        147.278778,
        0.0,
        1.0
      ],
      "name": "low_BreadTop"
    },
    {
      "mesh": 1,
      "name": "defaultMaterial"
    },
    {
      "children": [
        7
      ],
      "matrix": [
        642.001465,
        0.0,
        0.0,
        0.0,
        0.0,
        -0.000105,
        -642.001465,
        0.0,
        0.0,
        1215.504395,
        -0.000198,
        0.0,
        0.0,
        1076.281372,
        0.0,
        1.0
      ],
      "name": "low_Cheese"
    },
    {
      "mesh": 2,
      "name": "defaultMaterial"
    },
    {
      "children": [
        9
      ],
      "matrix": [
        581.497803,
        0.0,
        0.0,
        0.0,
        0.0,
        -9.5e-05,
        -581.497803,
        0.0,
        0.0,
        581.497803,
        -9.5e-05,
        0.0,
        0.0,
        15.679858,
        0.0,
        1.0
      ],
      "name": "low_Dish"
    },
    {
      "mesh": 3,
      "name": "defaultMaterial"
    }
  ],
  "samplers": [
    {
      "magFilter": 9729,
      "minFilter": 9987,
      "wrapS": 10497,
      "wrapT": 10497
    }
  ],
  "scene": 0,
  "scenes": [
    {
      "name": "Sketchfab_Scene",
      "nodes": [
        0
      ]
    }
  ],
  "textures": [
    {
      "sampler": 0,
      "source": 0
    },
    {
      "sampler": 0,
      "source": 1
    },
    {
      "sampler": 0,
      "source": 2
    },
    {
      "sampler": 0,
      "source": 3
    },
    {
      "sampler": 0,
      "source": 4
    },
    {
      "sampler": 0,
      "source": 5
    }
  ]
}
